<svg width="140" height="34" viewBox="0 0 140 34" fill="none" xmlns="http://www.w3.org/2000/svg">
<path d="M58.8042 24.9449C58.9865 25.9474 59.7384 26.1525 59.7384 26.7221V26.7904C59.7384 27.041 59.5333 27.1777 59.2143 27.1777H55.1133C54.8171 27.1777 54.5893 27.041 54.5893 26.7904V26.7221C54.5893 26.1525 55.569 25.9474 55.3867 24.9449L53.7918 15.8998L49.9414 26.5398C49.8047 26.9499 49.6224 27.155 49.2123 27.155C48.8022 27.155 48.5516 26.9727 48.3693 26.5626L44.1543 15.4897L42.6962 24.9449C42.5367 25.9474 43.5164 26.1525 43.5164 26.7221V26.7904C43.5164 27.041 43.3341 27.1777 43.0151 27.1777H40.4406C40.1216 27.1777 39.9393 27.041 39.9393 26.7904V26.7221C39.9393 26.1525 40.6912 25.9474 40.8507 24.9449L42.7417 13.2113C42.8784 12.2544 41.8987 12.0493 41.8987 11.457V11.3886C41.8987 11.1608 42.081 11.0013 42.3772 11.0013H44.8834C45.4302 11.0013 45.8175 11.2519 45.9998 11.7532L49.6908 22.4843L53.3362 11.7532C53.5184 11.2519 53.8602 11.0013 54.3842 11.0013H57.0043C57.2777 11.0013 57.4828 11.138 57.4828 11.3658V11.457C57.4828 12.0493 56.4347 12.2544 56.617 13.3025L58.8042 24.9449ZM69.7112 23.7146C69.9846 23.3729 70.5087 23.4868 70.4859 23.9652C70.3492 25.2867 68.7999 27.4056 65.8608 27.4056C62.6939 27.4056 60.3471 25.1272 60.3471 21.6185C60.3471 18.3149 62.8761 16.0137 65.8608 16.0137C68.8455 16.0137 70.1669 17.7453 70.1669 19.249C70.1669 20.0236 69.7796 20.4793 69.1644 20.7527L64.1064 23.0539C64.6988 24.307 65.7469 25.0361 67.1139 25.0361C68.3214 25.0361 69.2783 24.4209 69.7112 23.7146ZM65.4507 17.0162C64.2431 17.0162 63.5141 18.3149 63.5141 20.0464C63.5141 20.7527 63.5824 21.4135 63.7419 22.0058L66.681 20.5249C67.0911 20.3198 67.2734 19.9325 67.2734 19.4541C67.2734 18.6338 66.681 17.0162 65.4507 17.0162ZM90.5631 24.9677C90.6315 25.9702 91.3834 26.1525 91.3834 26.7221V26.8132C91.3834 27.0638 91.1783 27.2005 90.8821 27.2005H86.9405C86.6216 27.2005 86.4165 27.0638 86.4165 26.8132V26.7221C86.4165 26.1525 87.2823 25.9702 87.2139 24.9905L86.9861 20.8211C86.8722 18.2465 86.2115 17.3124 85.0039 17.3124C83.9331 17.3124 83.204 18.3149 83.1584 19.6819C83.2268 20.0236 83.2496 20.3882 83.2496 20.7755V24.9905C83.2496 25.9702 84.047 26.1525 84.047 26.7221V26.8132C84.047 27.0638 83.8419 27.2005 83.5458 27.2005H79.6042C79.308 27.2005 79.0801 27.0638 79.0801 26.8132V26.7221C79.0801 26.1525 79.9004 25.9702 79.9004 24.9905V20.5477C79.9004 18.4288 79.0801 17.3124 77.9182 17.3124C76.6651 17.3124 75.9588 18.406 75.9588 19.8414V24.9905C75.9588 25.9702 76.9385 26.1525 76.9385 26.7221V26.8132C76.9385 27.0638 76.7334 27.2005 76.4145 27.2005H72.1767C71.8805 27.2005 71.6527 27.0638 71.6527 26.8132V26.7221C71.6527 26.1525 72.6324 25.9702 72.6324 24.9905V19.6819C72.6324 18.6794 71.516 18.5655 71.516 17.9959V17.9048C71.516 17.6769 71.721 17.563 71.9944 17.4263L74.8652 16.1048C75.3892 15.8314 75.6626 16.1504 75.6626 16.5833V17.6541C76.3233 16.6517 77.4625 16.0137 78.8067 16.0137C80.4244 16.0137 81.8142 16.72 82.5888 18.0642C83.204 16.7656 84.5255 16.0137 86.052 16.0137C88.1253 16.0137 90.0163 17.1985 90.2897 20.9122L90.5631 24.9677ZM101.706 23.7146C101.98 23.3729 102.504 23.4868 102.481 23.9652C102.344 25.2867 100.795 27.4056 97.8559 27.4056C94.689 27.4056 92.3422 25.1272 92.3422 21.6185C92.3422 18.3149 94.8712 16.0137 97.8559 16.0137C100.841 16.0137 102.162 17.7453 102.162 19.249C102.162 20.0236 101.775 20.4793 101.16 20.7527L96.1015 23.0539C96.6939 24.307 97.742 25.0361 99.109 25.0361C100.317 25.0361 101.273 24.4209 101.706 23.7146ZM97.4458 17.0162C96.2382 17.0162 95.5092 18.3149 95.5092 20.0464C95.5092 20.7527 95.5775 21.4135 95.737 22.0058L98.6761 20.5249C99.0862 20.3198 99.2685 19.9325 99.2685 19.4541C99.2685 18.6338 98.6761 17.0162 97.4458 17.0162ZM115.473 24.9677C115.541 25.9702 116.293 26.1525 116.293 26.7221V26.8132C116.293 27.041 116.088 27.2005 115.769 27.2005H111.827C111.508 27.2005 111.303 27.041 111.303 26.8132V26.7221C111.303 26.1525 112.169 25.9702 112.123 24.9677L111.895 20.7527C111.782 18.3149 111.121 17.3124 109.913 17.3124C108.683 17.3124 107.977 18.3377 107.977 19.8186V24.9905C107.977 25.9702 108.956 26.1525 108.956 26.7221V26.8132C108.956 27.041 108.751 27.2005 108.432 27.2005H104.195C103.876 27.2005 103.671 27.041 103.671 26.8132V26.7221C103.671 26.1525 104.65 25.9702 104.65 24.9905V19.6819C104.65 18.6566 103.534 18.5655 103.534 17.9959V17.9048C103.534 17.6769 103.716 17.563 103.99 17.4263L106.701 16.1048C107.225 15.8314 107.475 16.1504 107.475 16.5833V17.8592C108.091 16.6972 109.298 16.0137 110.847 16.0137C112.921 16.0137 114.926 17.244 115.199 20.8666L115.473 24.9677ZM121.73 27.4056C119.657 27.4056 118.29 26.0613 118.29 23.464V17.563H117.219C116.946 17.563 116.763 17.3807 116.763 17.1073V16.72C116.763 16.4238 116.923 16.2416 117.219 16.2416H117.789C119.065 16.2416 119.953 15.3302 120.204 13.986C120.272 13.6442 120.477 13.4392 120.728 13.4392H121.183C121.502 13.4392 121.685 13.6442 121.685 13.986L121.707 16.2416H124.328C124.578 16.2416 124.783 16.4466 124.783 16.72V17.1073C124.783 17.3807 124.578 17.563 124.328 17.563H121.707V23.5096C121.707 24.4209 122.209 24.9677 122.869 24.9677C123.781 24.9677 124.236 24.4665 124.419 23.9424C124.692 23.5551 125.239 23.6463 125.239 24.0791C125.239 25.7196 124.009 27.4056 121.73 27.4056ZM132.115 27.4056C128.447 27.4056 125.872 24.8082 125.872 21.6413C125.872 18.3377 128.583 16.0137 131.773 16.0137C135.282 16.0137 137.902 18.5199 137.902 21.7552C137.902 24.9905 135.441 27.4056 132.115 27.4056ZM132.525 26.4031C133.755 26.4031 134.484 25.1956 134.484 23.0994C134.484 20.616 133.254 17.0162 131.317 17.0162C129.95 17.0162 129.221 18.1782 129.221 20.3426C129.221 22.6666 130.452 26.4031 132.525 26.4031Z" fill="white"/>
<g clip-path="url(#clip0_4046_5884)">
<path d="M16.0497 16.5181V33.0374L8.16539 28.8721C5.68348 27.5609 4.13062 24.9843 4.13062 22.1773V14.6036C4.13062 12.2397 6.72159 10.7902 8.73608 12.0272L16.0497 16.5181Z" fill="url(#paint0_linear_4046_5884)"/>
<path d="M16.0487 16.5181V33.0374L23.933 28.8721C26.4149 27.5609 27.9678 24.9843 27.9678 22.1773V14.6036C27.9678 12.2397 25.3768 10.7902 23.3623 12.0272L16.0487 16.5181Z" fill="#9869D5"/>
<g clip-path="url(#clip1_4046_5884)">
<path d="M15.1075 4.1378C15.4481 3.141 16.8254 3.11082 17.2293 4.04723L17.2634 4.13837L17.7231 5.48262C17.8284 5.7909 17.9987 6.07301 18.2223 6.30992C18.446 6.54682 18.7178 6.73301 19.0195 6.85592L19.1431 6.90206L20.4874 7.36115C21.4842 7.70177 21.5143 9.07906 20.5785 9.4829L20.4874 9.51708L19.1431 9.97674C18.8347 10.082 18.5525 10.2522 18.3155 10.4759C18.0785 10.6995 17.8922 10.9714 17.7692 11.2731L17.7231 11.3962L17.264 12.741C16.9234 13.7378 15.5461 13.768 15.1428 12.8321L15.1075 12.741L14.6484 11.3967C14.5431 11.0884 14.3729 10.8061 14.1493 10.5691C13.9257 10.3321 13.6538 10.1459 13.352 10.0229L13.229 9.97674L11.8847 9.51765C10.8874 9.17703 10.8572 7.79974 11.7936 7.39647L11.8847 7.36115L13.229 6.90206C13.5373 6.79671 13.8194 6.62648 14.0563 6.40284C14.2932 6.17921 14.4794 5.90736 14.6023 5.60565L14.6484 5.48262L15.1075 4.1378ZM20.7425 2.17383C20.8491 2.17383 20.9535 2.20372 21.0439 2.26011C21.1344 2.31649 21.2072 2.39711 21.254 2.4928L21.2814 2.55945L21.4807 3.14385L22.0657 3.34321C22.1725 3.37949 22.2661 3.44666 22.3347 3.5362C22.4033 3.62574 22.4437 3.73362 22.4509 3.84618C22.4581 3.95873 22.4317 4.07089 22.3751 4.16844C22.3185 4.26598 22.2342 4.34453 22.1329 4.39412L22.0657 4.42146L21.4813 4.62082L21.2819 5.20579C21.2456 5.31255 21.1784 5.40612 21.0888 5.47464C20.9992 5.54316 20.8913 5.58355 20.7788 5.59068C20.6662 5.59782 20.5541 5.57139 20.4566 5.51473C20.3591 5.45808 20.2806 5.37375 20.231 5.27244L20.2037 5.20579L20.0043 4.62139L19.4194 4.42203C19.3126 4.38575 19.219 4.31858 19.1504 4.22904C19.0818 4.1395 19.0414 4.03162 19.0342 3.91906C19.027 3.80651 19.0533 3.69435 19.1099 3.5968C19.1666 3.49926 19.2509 3.42071 19.3522 3.37112L19.4194 3.34378L20.0038 3.14442L20.2031 2.55945C20.2415 2.44691 20.3142 2.34921 20.4109 2.28006C20.5077 2.2109 20.6236 2.17376 20.7425 2.17383Z" fill="url(#paint1_linear_4046_5884)"/>
</g>
</g>
<defs>
<linearGradient id="paint0_linear_4046_5884" x1="10.0901" y1="9.19922" x2="10.0901" y2="33.0374" gradientUnits="userSpaceOnUse">
<stop stop-color="#C5A9E7"/>
<stop offset="1" stop-color="#9869D5"/>
</linearGradient>
<linearGradient id="paint1_linear_4046_5884" x1="16.7827" y1="2.17383" x2="16.7827" y2="13.512" gradientUnits="userSpaceOnUse">
<stop stop-color="#C5A9E7"/>
<stop offset="1" stop-color="#9869D5"/>
</linearGradient>
<clipPath id="clip0_4046_5884">
<rect width="33.1399" height="33.1399" fill="white"/>
</clipPath>
<clipPath id="clip1_4046_5884">
<rect width="13.6703" height="13.6703" fill="white" transform="translate(9.75537 1.03516)"/>
</clipPath>
</defs>
</svg>
