<svg width="40" height="40" viewBox="0 0 40 40" fill="none" xmlns="http://www.w3.org/2000/svg">
<rect width="40" height="40" rx="20" fill="white"/>
<path d="M20 19.6117V32.0001L14.0873 28.8764C12.2261 27.8931 11.0615 25.9608 11.0615 23.8557V18.176C11.0615 16.4032 13.0046 15.3162 14.5153 16.2438L20 19.6117Z" fill="url(#paint0_linear_3879_3669)"/>
<path d="M20 19.6117V32.0001L25.9127 28.8764C27.7739 27.8931 28.9385 25.9608 28.9385 23.8557V18.176C28.9385 16.4032 26.9954 15.3162 25.4847 16.2438L20 19.6117Z" fill="url(#paint1_linear_3879_3669)"/>
<g clip-path="url(#clip0_3879_3669)">
<path d="M18.721 10.3273C18.9764 9.57981 20.0093 9.55717 20.3122 10.2594L20.3378 10.3278L20.6825 11.3359C20.7615 11.5671 20.8892 11.7786 21.0569 11.9563C21.2246 12.1339 21.4285 12.2736 21.6547 12.3657L21.7474 12.4003L22.7555 12.7446C23.503 13.0001 23.5257 14.033 22.8239 14.3358L22.7555 14.3614L21.7474 14.7062C21.5161 14.7851 21.3045 14.9127 21.1268 15.0805C20.949 15.2482 20.8093 15.4521 20.7171 15.6784L20.6825 15.7706L20.3382 16.7792C20.0828 17.5267 19.0499 17.5493 18.7475 16.8475L18.721 16.7792L18.3767 15.7711C18.2978 15.5398 18.1701 15.3281 18.0024 15.1504C17.8347 14.9727 17.6308 14.833 17.4045 14.7408L17.3122 14.7062L16.3041 14.3619C15.5562 14.1064 15.5335 13.0736 16.2358 12.7711L16.3041 12.7446L17.3122 12.4003C17.5434 12.3213 17.755 12.1937 17.9326 12.026C18.1103 11.8583 18.2499 11.6544 18.3421 11.4281L18.3767 11.3359L18.721 10.3273ZM22.9469 8.85449C23.0268 8.85449 23.1051 8.87691 23.1729 8.91919C23.2407 8.96148 23.2953 9.02194 23.3305 9.0937L23.351 9.14368L23.5005 9.58195L23.9392 9.73145C24.0193 9.75866 24.0895 9.80903 24.1409 9.87618C24.1923 9.94333 24.2227 10.0242 24.2281 10.1086C24.2335 10.1931 24.2137 10.2772 24.1712 10.3503C24.1288 10.4235 24.0656 10.4824 23.9896 10.5196L23.9392 10.5401L23.5009 10.6896L23.3514 11.1283C23.3242 11.2083 23.2737 11.2785 23.2066 11.3299C23.1394 11.3813 23.0585 11.4116 22.9741 11.4169C22.8897 11.4223 22.8056 11.4024 22.7324 11.3599C22.6593 11.3175 22.6004 11.2542 22.5633 11.1782L22.5428 11.1283L22.3933 10.69L21.9546 10.5405C21.8745 10.5133 21.8043 10.4629 21.7529 10.3958C21.7014 10.3286 21.6711 10.2477 21.6657 10.1633C21.6603 10.0789 21.6801 9.99478 21.7226 9.92163C21.765 9.84847 21.8282 9.78957 21.9042 9.75238L21.9546 9.73188L22.3929 9.58237L22.5424 9.14368C22.5712 9.05928 22.6257 8.98602 22.6982 8.93416C22.7708 8.8823 22.8577 8.85444 22.9469 8.85449Z" fill="url(#paint2_linear_3879_3669)"/>
</g>
<defs>
<linearGradient id="paint0_linear_3879_3669" x1="15.5308" y1="14.123" x2="15.5308" y2="32.0001" gradientUnits="userSpaceOnUse">
<stop stop-color="#7B3EC9"/>
<stop offset="1" stop-color="#57219C"/>
</linearGradient>
<linearGradient id="paint1_linear_3879_3669" x1="29.6431" y1="15.7411" x2="24.4692" y2="32.0001" gradientUnits="userSpaceOnUse">
<stop stop-color="#57219C"/>
<stop offset="1" stop-color="#57219C"/>
</linearGradient>
<linearGradient id="paint2_linear_3879_3669" x1="19.9773" y1="8.85449" x2="19.9773" y2="17.3574" gradientUnits="userSpaceOnUse">
<stop stop-color="#57219C"/>
<stop offset="1" stop-color="#6125B1"/>
</linearGradient>
<clipPath id="clip0_3879_3669">
<rect width="10.2518" height="10.2518" fill="white" transform="translate(14.957 8)"/>
</clipPath>
</defs>
</svg>
